# xmcd CD database file
#
# Track frame offsets:
#	150
#	13525
#	25122
#	36605
#	50270
#	66710
#	80312
#	92617
#	118165
#	132052
#	146370
#	164642
#	177312
#	192320
#	229427
#
# Disc length: 3264 seconds
#
# Revision: 0
# Processed by: cddbd v1.5PL3 Copyright (c) Steve Scherf et al.
# Submitted via: CDex 1.51
#
DISCID=d30cbe0f
DTITLE=Various Artist - Original JAZZ Best.3
DYEAR=1998
DGENRE=Jazz
TTITLE0=SUMMERTIME
TTITLE1=BOOM BOOM
TTITLE2=WHAT A DIFFERENCE A DAY MAKES
TTITLE3=NOBODY KNOWS YOU WHEN YOU'RE DOWN AND OUT
TTITLE4=MY ONE AND ONLY LOVE
TTITLE5=FALLIN' IN LOVE AGAIN
TTITLE6=APRIL IN PARIS
TTITLE7=I'M A FOOL TO WANT YOU
TTITLE8=HE CALLED ME BABY
TTITLE9=MEI MIR BIST DU SCHOEN
TTITLE10=STELLA BY STARLIGHT
TTITLE11=THE VERY THOUGHT OF YOU
TTITLE12=ON THE SUNNY SIDE OF THE STREET
TTITLE13=MY ROMANCE
TTITLE14=AIN'T MISBEHAVIN'
EXTD=YEAR: 1998
EXTT0=
EXTT1=
EXTT2=
EXTT3=
EXTT4=
EXTT5=
EXTT6=
EXTT7=
EXTT8=
EXTT9=
EXTT10=
EXTT11=
EXTT12=
EXTT13=
EXTT14=
PLAYORDER=
